<svg width="74" height="116" viewBox="0 0 74 116" fill="none" xmlns="http://www.w3.org/2000/svg">
<path d="M1.17898 15V12.7841L6.35653 7.99006C6.79688 7.56392 7.16619 7.1804 7.46449 6.83949C7.76752 6.49858 7.99716 6.16477 8.15341 5.83807C8.30966 5.50663 8.38778 5.14915 8.38778 4.76562C8.38778 4.33949 8.29072 3.97254 8.09659 3.66477C7.90246 3.35227 7.63731 3.11316 7.30114 2.94744C6.96496 2.77699 6.58381 2.69176 6.15767 2.69176C5.71259 2.69176 5.32434 2.78172 4.9929 2.96165C4.66146 3.14157 4.40578 3.39962 4.22585 3.7358C4.04593 4.07197 3.95597 4.47206 3.95597 4.93608H1.03693C1.03693 3.98437 1.25237 3.15814 1.68324 2.45739C2.11411 1.75663 2.7178 1.21449 3.49432 0.830965C4.27083 0.447443 5.16572 0.255681 6.17898 0.255681C7.22064 0.255681 8.12737 0.44034 8.89915 0.809659C9.67566 1.17424 10.2794 1.68087 10.7102 2.32955C11.1411 2.97822 11.3565 3.72159 11.3565 4.55966C11.3565 5.1089 11.2476 5.65104 11.0298 6.18608C10.8168 6.72112 10.4356 7.31534 9.88636 7.96875C9.33712 8.61742 8.56297 9.39631 7.56392 10.3054L5.44034 12.3864V12.4858H11.5483V15H1.17898ZM13.244 12.4432V10.0213L19.3164 0.454545H21.4045V3.80682H20.1687L16.3406 9.86506V9.97869H24.9698V12.4432H13.244ZM20.2255 15V11.7045L20.2823 10.6321V0.454545H23.1658V15H20.2255ZM1.2642 39V24.4545H4.33949V30.456H10.5824V24.4545H13.6506V39H10.5824V32.9915H4.33949V39H1.2642ZM21.0582 39.2131C19.955 39.2131 19.0009 38.9787 18.196 38.5099C17.3958 38.0365 16.7779 37.3783 16.3423 36.5355C15.9067 35.688 15.6889 34.7055 15.6889 33.5881C15.6889 32.4612 15.9067 31.4763 16.3423 30.6335C16.7779 29.786 17.3958 29.1278 18.196 28.6591C19.0009 28.1856 19.955 27.9489 21.0582 27.9489C22.1615 27.9489 23.1132 28.1856 23.9134 28.6591C24.7183 29.1278 25.3385 29.786 25.7741 30.6335C26.2098 31.4763 26.4276 32.4612 26.4276 33.5881C26.4276 34.7055 26.2098 35.688 25.7741 36.5355C25.3385 37.3783 24.7183 38.0365 23.9134 38.5099C23.1132 38.9787 22.1615 39.2131 21.0582 39.2131ZM21.0724 36.8693C21.5743 36.8693 21.9934 36.7273 22.3295 36.4432C22.6657 36.1544 22.919 35.7614 23.0895 35.2642C23.2647 34.767 23.3523 34.2012 23.3523 33.5668C23.3523 32.9323 23.2647 32.3665 23.0895 31.8693C22.919 31.3722 22.6657 30.9792 22.3295 30.6903C21.9934 30.4015 21.5743 30.2571 21.0724 30.2571C20.5658 30.2571 20.1397 30.4015 19.794 30.6903C19.4531 30.9792 19.1951 31.3722 19.0199 31.8693C18.8494 32.3665 18.7642 32.9323 18.7642 33.5668C18.7642 34.2012 18.8494 34.767 19.0199 35.2642C19.1951 35.7614 19.4531 36.1544 19.794 36.4432C20.1397 36.7273 20.5658 36.8693 21.0724 36.8693ZM35.3906 34.3551V28.0909H38.4162V39H35.5114V37.0185H35.3977C35.1515 37.6577 34.742 38.1714 34.169 38.5597C33.6009 38.9479 32.9072 39.142 32.0881 39.142C31.3589 39.142 30.7173 38.9763 30.1634 38.6449C29.6094 38.3134 29.1761 37.8423 28.8636 37.2315C28.5559 36.6207 28.3996 35.8892 28.3949 35.0369V28.0909H31.4205V34.4972C31.4252 35.1411 31.598 35.6501 31.9389 36.0241C32.2798 36.3982 32.7367 36.5852 33.3097 36.5852C33.6742 36.5852 34.0152 36.5024 34.3324 36.3366C34.6496 36.1662 34.9053 35.9152 35.0994 35.5838C35.2983 35.2524 35.3954 34.8428 35.3906 34.3551ZM40.8363 39V28.0909H43.7695V29.9943H43.8832C44.082 29.3172 44.4158 28.8059 44.8846 28.4602C45.3533 28.1098 45.8931 27.9347 46.5039 27.9347C46.6554 27.9347 46.8188 27.9441 46.994 27.9631C47.1692 27.982 47.323 28.008 47.4556 28.0412V30.7259C47.3136 30.6832 47.1171 30.6454 46.8661 30.6122C46.6152 30.5791 46.3855 30.5625 46.1772 30.5625C45.7321 30.5625 45.3344 30.6596 44.984 30.8537C44.6384 31.0431 44.3638 31.3082 44.1602 31.6491C43.9613 31.9901 43.8619 32.383 43.8619 32.8281V39H40.8363ZM58.0966 31.2017L55.3267 31.3722C55.2794 31.1354 55.1776 30.9223 55.0213 30.733C54.8651 30.5388 54.6591 30.3849 54.4034 30.2713C54.1525 30.1529 53.8518 30.0938 53.5014 30.0938C53.0327 30.0938 52.6373 30.1932 52.3153 30.392C51.9934 30.5862 51.8324 30.8466 51.8324 31.1733C51.8324 31.4337 51.9366 31.6539 52.1449 31.8338C52.3532 32.0137 52.7107 32.1581 53.2173 32.267L55.1918 32.6648C56.2524 32.8826 57.0431 33.233 57.5639 33.7159C58.0848 34.1989 58.3452 34.8333 58.3452 35.6193C58.3452 36.3343 58.1345 36.9616 57.7131 37.5014C57.2964 38.0412 56.7235 38.4626 55.9943 38.7656C55.2699 39.0639 54.4342 39.2131 53.4872 39.2131C52.0431 39.2131 50.8925 38.9124 50.0355 38.3111C49.1832 37.705 48.6837 36.8812 48.5369 35.8395L51.5128 35.6832C51.6027 36.1236 51.8205 36.4598 52.1662 36.6918C52.5118 36.919 52.9545 37.0327 53.4943 37.0327C54.0246 37.0327 54.4508 36.9309 54.7727 36.7273C55.0994 36.5189 55.2652 36.2514 55.2699 35.9247C55.2652 35.6501 55.1491 35.4252 54.9219 35.25C54.6946 35.0701 54.3442 34.9328 53.8707 34.8381L51.9815 34.4616C50.9162 34.2486 50.1231 33.8793 49.6023 33.3537C49.0862 32.8281 48.8281 32.1581 48.8281 31.3438C48.8281 30.643 49.0175 30.0393 49.3963 29.5327C49.7798 29.026 50.3172 28.6354 51.0085 28.3608C51.7045 28.0862 52.5189 27.9489 53.4517 27.9489C54.8295 27.9489 55.9138 28.2401 56.7045 28.8224C57.5 29.4048 57.964 30.1979 58.0966 31.2017ZM3.77131 63H0.475852L5.49716 48.4545H9.46023L14.4744 63H11.179L7.53551 51.7784H7.42188L3.77131 63ZM3.56534 57.2827H11.3494V59.6832H3.56534V57.2827ZM16.1683 63V52.0909H19.1016V53.9943H19.2152C19.4141 53.3172 19.7479 52.8059 20.2166 52.4602C20.6854 52.1098 21.2251 51.9347 21.8359 51.9347C21.9875 51.9347 22.1508 51.9441 22.326 51.9631C22.5012 51.982 22.6551 52.008 22.7876 52.0412V54.7259C22.6456 54.6832 22.4491 54.6454 22.1982 54.6122C21.9472 54.5791 21.7176 54.5625 21.5092 54.5625C21.0642 54.5625 20.6664 54.6596 20.3161 54.8537C19.9704 55.0431 19.6958 55.3082 19.4922 55.6491C19.2933 55.9901 19.1939 56.383 19.1939 56.8281V63H16.1683ZM28.8157 63.2131C27.6935 63.2131 26.7276 62.9858 25.918 62.5312C25.113 62.072 24.4928 61.4233 24.0572 60.5852C23.6216 59.7424 23.4038 58.7457 23.4038 57.5952C23.4038 56.473 23.6216 55.4882 24.0572 54.6406C24.4928 53.7931 25.1059 53.1326 25.8967 52.6591C26.6921 52.1856 27.6249 51.9489 28.695 51.9489C29.4147 51.9489 30.0846 52.0649 30.7049 52.2969C31.3299 52.5241 31.8744 52.8674 32.3384 53.3267C32.8072 53.786 33.1718 54.3636 33.4322 55.0597C33.6926 55.7509 33.8228 56.5606 33.8228 57.4886V58.3196H24.6112V56.4446H30.9748C30.9748 56.009 30.8801 55.6231 30.6907 55.2869C30.5013 54.9508 30.2385 54.688 29.9023 54.4986C29.5709 54.3045 29.185 54.2074 28.7447 54.2074C28.2854 54.2074 27.8782 54.3139 27.5231 54.527C27.1727 54.7353 26.8981 55.017 26.6992 55.3722C26.5004 55.7225 26.3986 56.1132 26.3938 56.544V58.3267C26.3938 58.8665 26.4933 59.3329 26.6921 59.7259C26.8957 60.1188 27.1822 60.4219 27.5515 60.6349C27.9208 60.848 28.3588 60.9545 28.8654 60.9545C29.2016 60.9545 29.5094 60.9072 29.7887 60.8125C30.0681 60.7178 30.3072 60.5758 30.506 60.3864C30.7049 60.197 30.8564 59.965 30.9606 59.6903L33.7589 59.875C33.6168 60.5473 33.3256 61.1345 32.8853 61.6364C32.4497 62.1335 31.8862 62.5218 31.195 62.8011C30.5084 63.0758 29.7153 63.2131 28.8157 63.2131ZM13.4304 72.4545V87H10.7741L4.44602 77.8452H4.33949V87H1.2642V72.4545H3.96307L10.2415 81.6023H10.3693V72.4545H13.4304ZM20.8434 87.2131C19.7402 87.2131 18.7861 86.9787 17.9812 86.5099C17.181 86.0365 16.5631 85.3783 16.1275 84.5355C15.6919 83.688 15.4741 82.7055 15.4741 81.5881C15.4741 80.4612 15.6919 79.4763 16.1275 78.6335C16.5631 77.786 17.181 77.1278 17.9812 76.6591C18.7861 76.1856 19.7402 75.9489 20.8434 75.9489C21.9466 75.9489 22.8983 76.1856 23.6985 76.6591C24.5034 77.1278 25.1237 77.786 25.5593 78.6335C25.9949 79.4763 26.2127 80.4612 26.2127 81.5881C26.2127 82.7055 25.9949 83.688 25.5593 84.5355C25.1237 85.3783 24.5034 86.0365 23.6985 86.5099C22.8983 86.9787 21.9466 87.2131 20.8434 87.2131ZM20.8576 84.8693C21.3595 84.8693 21.7785 84.7273 22.1147 84.4432C22.4509 84.1544 22.7042 83.7614 22.8746 83.2642C23.0498 82.767 23.1374 82.2012 23.1374 81.5668C23.1374 80.9323 23.0498 80.3665 22.8746 79.8693C22.7042 79.3722 22.4509 78.9792 22.1147 78.6903C21.7785 78.4015 21.3595 78.2571 20.8576 78.2571C20.351 78.2571 19.9248 78.4015 19.5792 78.6903C19.2383 78.9792 18.9802 79.3722 18.805 79.8693C18.6346 80.3665 18.5494 80.9323 18.5494 81.5668C18.5494 82.2012 18.6346 82.767 18.805 83.2642C18.9802 83.7614 19.2383 84.1544 19.5792 84.4432C19.9248 84.7273 20.351 84.8693 20.8576 84.8693ZM33.9826 76.0909V78.3636H27.413V76.0909H33.9826ZM28.9045 73.4773H31.93V83.6477C31.93 83.9271 31.9727 84.1449 32.0579 84.3011C32.1431 84.4527 32.2615 84.5592 32.413 84.6207C32.5692 84.6823 32.7492 84.7131 32.9528 84.7131C33.0948 84.7131 33.2369 84.7012 33.3789 84.6776C33.521 84.6491 33.6299 84.6278 33.7056 84.6136L34.1815 86.8651C34.0299 86.9124 33.8169 86.9669 33.5423 87.0284C33.2676 87.0947 32.9338 87.1349 32.5408 87.1491C31.8117 87.1776 31.1725 87.0805 30.6232 86.858C30.0787 86.6354 29.6549 86.2898 29.3519 85.821C29.0489 85.3523 28.8997 84.7604 28.9045 84.0455V73.4773ZM1.2642 111V96.4545H11.0653V98.9901H4.33949V102.456H10.5611V104.991H4.33949V108.464H11.0938V111H1.2642ZM16.479 104.693V111H13.4535V100.091H16.337V102.016H16.4648C16.7063 101.381 17.1112 100.879 17.6793 100.51C18.2475 100.136 18.9364 99.9489 19.7461 99.9489C20.5037 99.9489 21.1642 100.115 21.7276 100.446C22.2911 100.777 22.729 101.251 23.0415 101.866C23.354 102.477 23.5103 103.206 23.5103 104.054V111H20.4847V104.594C20.4895 103.926 20.319 103.405 19.9734 103.031C19.6277 102.652 19.1519 102.463 18.5458 102.463C18.1386 102.463 17.7788 102.551 17.4663 102.726C17.1585 102.901 16.917 103.157 16.7418 103.493C16.5714 103.824 16.4838 104.224 16.479 104.693ZM30.8239 111.213C29.7206 111.213 28.7666 110.979 27.9616 110.51C27.1615 110.036 26.5436 109.378 26.108 108.536C25.6723 107.688 25.4545 106.705 25.4545 105.588C25.4545 104.461 25.6723 103.476 26.108 102.634C26.5436 101.786 27.1615 101.128 27.9616 100.659C28.7666 100.186 29.7206 99.9489 30.8239 99.9489C31.9271 99.9489 32.8788 100.186 33.679 100.659C34.4839 101.128 35.1042 101.786 35.5398 102.634C35.9754 103.476 36.1932 104.461 36.1932 105.588C36.1932 106.705 35.9754 107.688 35.5398 108.536C35.1042 109.378 34.4839 110.036 33.679 110.51C32.8788 110.979 31.9271 111.213 30.8239 111.213ZM30.8381 108.869C31.34 108.869 31.759 108.727 32.0952 108.443C32.4313 108.154 32.6847 107.761 32.8551 107.264C33.0303 106.767 33.1179 106.201 33.1179 105.567C33.1179 104.932 33.0303 104.366 32.8551 103.869C32.6847 103.372 32.4313 102.979 32.0952 102.69C31.759 102.402 31.34 102.257 30.8381 102.257C30.3314 102.257 29.9053 102.402 29.5597 102.69C29.2188 102.979 28.9607 103.372 28.7855 103.869C28.6151 104.366 28.5298 104.932 28.5298 105.567C28.5298 106.201 28.6151 106.767 28.7855 107.264C28.9607 107.761 29.2188 108.154 29.5597 108.443C29.9053 108.727 30.3314 108.869 30.8381 108.869ZM45.1562 106.355V100.091H48.1818V111H45.277V109.018H45.1634C44.9171 109.658 44.5076 110.171 43.9347 110.56C43.3665 110.948 42.6728 111.142 41.8537 111.142C41.1245 111.142 40.483 110.976 39.929 110.645C39.375 110.313 38.9418 109.842 38.6293 109.232C38.3215 108.621 38.1652 107.889 38.1605 107.037V100.091H41.1861V106.497C41.1908 107.141 41.3636 107.65 41.7045 108.024C42.0455 108.398 42.5024 108.585 43.0753 108.585C43.4399 108.585 43.7808 108.502 44.098 108.337C44.4152 108.166 44.6709 107.915 44.8651 107.584C45.0639 107.252 45.161 106.843 45.1562 106.355ZM55.5167 115.318C54.5366 115.318 53.6961 115.183 52.9954 114.913C52.2994 114.648 51.7454 114.286 51.3335 113.827C50.9215 113.367 50.654 112.851 50.5309 112.278L53.3292 111.902C53.4144 112.12 53.5494 112.323 53.734 112.513C53.9187 112.702 54.1625 112.854 54.4656 112.967C54.7733 113.086 55.1474 113.145 55.5877 113.145C56.2459 113.145 56.788 112.984 57.2141 112.662C57.645 112.345 57.8604 111.812 57.8604 111.064V109.068H57.7326C57.6 109.371 57.4012 109.658 57.136 109.928C56.8709 110.197 56.5299 110.418 56.1133 110.588C55.6966 110.759 55.1995 110.844 54.6218 110.844C53.8027 110.844 53.0569 110.654 52.3846 110.276C51.717 109.892 51.1843 109.307 50.7866 108.521C50.3936 107.731 50.1971 106.732 50.1971 105.524C50.1971 104.288 50.3983 103.256 50.8008 102.428C51.2032 101.599 51.7383 100.979 52.4059 100.567C53.0782 100.155 53.8145 99.9489 54.6147 99.9489C55.2255 99.9489 55.7369 100.053 56.1488 100.261C56.5607 100.465 56.8922 100.721 57.1431 101.028C57.3988 101.331 57.5953 101.63 57.7326 101.923H57.8462V100.091H60.8505V111.107C60.8505 112.035 60.6232 112.811 60.1687 113.436C59.7141 114.061 59.0844 114.53 58.2795 114.842C57.4793 115.16 56.5584 115.318 55.5167 115.318ZM55.5806 108.571C56.0683 108.571 56.4802 108.45 56.8164 108.209C57.1573 107.963 57.4177 107.612 57.5977 107.158C57.7823 106.698 57.8746 106.149 57.8746 105.51C57.8746 104.871 57.7847 104.317 57.6048 103.848C57.4248 103.375 57.1644 103.008 56.8235 102.747C56.4826 102.487 56.0683 102.357 55.5806 102.357C55.0835 102.357 54.6644 102.491 54.3235 102.761C53.9826 103.027 53.7246 103.396 53.5494 103.869C53.3742 104.343 53.2866 104.89 53.2866 105.51C53.2866 106.14 53.3742 106.684 53.5494 107.143C53.7293 107.598 53.9873 107.951 54.3235 108.202C54.6644 108.448 55.0835 108.571 55.5806 108.571ZM66.2837 104.693V111H63.2582V96.4545H66.1985V102.016H66.3263C66.5726 101.372 66.9703 100.867 67.5195 100.503C68.0688 100.134 68.7577 99.9489 69.5863 99.9489C70.3439 99.9489 71.0044 100.115 71.5678 100.446C72.136 100.773 72.5763 101.244 72.8888 101.859C73.2061 102.47 73.3623 103.202 73.3576 104.054V111H70.332V104.594C70.3368 103.921 70.1663 103.398 69.8207 103.024C69.4798 102.65 69.0015 102.463 68.386 102.463C67.9741 102.463 67.6095 102.551 67.2923 102.726C66.9798 102.901 66.7335 103.157 66.5536 103.493C66.3784 103.824 66.2885 104.224 66.2837 104.693Z" fill="#444444"/>
</svg>
