<svg width="1024" height="1024" viewBox="0 0 1024 1024" fill="none" xmlns="http://www.w3.org/2000/svg">
<rect width="1024" height="1024" fill="white"/>
<rect width="1024" height="1024" fill="url(#paint0_linear_674_5489)"/>
<path d="M107.611 906.285V720.103H146.975V796.922H226.884V720.103H266.157V906.285H226.884V829.376H146.975V906.285H107.611ZM312.416 906.285H270.235L334.507 720.103H385.235L449.416 906.285H407.235L360.598 762.649H359.144L312.416 906.285ZM309.78 833.103H409.416V863.831H309.78V833.103ZM609.267 720.103V906.285H575.267L494.267 789.103H492.903V906.285H453.54V720.103H488.085L568.449 837.194H570.085V720.103H609.267ZM623.504 906.285V720.103H748.959V752.558H662.868V796.922H742.504V829.376H662.868V873.831H749.322V906.285H623.504Z" fill="white"/>
<path d="M110.702 650.285V633.922L172.157 566.649C179.369 558.77 185.308 551.922 189.975 546.103C194.642 540.225 198.096 534.709 200.338 529.558C202.642 524.346 203.793 518.891 203.793 513.194C203.793 506.649 202.217 500.982 199.066 496.194C195.975 491.406 191.732 487.709 186.338 485.103C180.945 482.497 174.884 481.194 168.157 481.194C161.005 481.194 154.763 482.679 149.429 485.649C144.157 488.558 140.066 492.649 137.157 497.922C134.308 503.194 132.884 509.376 132.884 516.467H111.429C111.429 505.558 113.945 495.982 118.975 487.74C124.005 479.497 130.854 473.073 139.52 468.467C148.248 463.861 158.035 461.558 168.884 461.558C179.793 461.558 189.46 463.861 197.884 468.467C206.308 473.073 212.914 479.285 217.702 487.103C222.49 494.922 224.884 503.618 224.884 513.194C224.884 520.043 223.642 526.74 221.157 533.285C218.732 539.77 214.49 547.012 208.429 555.012C202.429 562.952 194.096 572.649 183.429 584.103L141.611 628.831V630.285H228.157V650.285H110.702ZM239.053 612.103V593.558L320.871 464.103H334.325V492.831H325.235L263.416 590.649V592.103H373.598V612.103H239.053ZM326.689 650.285V606.467V597.831V464.103H348.144V650.285H326.689Z" fill="white"/>
<defs>
<linearGradient id="paint0_linear_674_5489" x1="887.467" y1="113.067" x2="537.083" y2="1037.69" gradientUnits="userSpaceOnUse">
<stop stop-color="#9AC3F4"/>
<stop offset="1" stop-color="#735BF2"/>
</linearGradient>
</defs>
</svg>
