<svg width="16" height="20" viewBox="0 0 16 20" fill="none" xmlns="http://www.w3.org/2000/svg">
<path fill-rule="evenodd" clip-rule="evenodd" d="M0 3C0 1.34315 1.34315 0 3 0H13C14.6569 0 16 1.34315 16 3V17C16 18.6569 14.6569 20 13 20H3C1.34315 20 0 18.6569 0 17V3ZM2 17C2 17.5523 2.44772 18 3 18H13C13.5523 18 14 17.5523 14 17V15.8293C13.6872 15.9398 13.3506 16 13 16H3C2.44772 16 2 16.4477 2 17ZM14 13C14 13.5523 13.5523 14 13 14H3C2.64936 14 2.31278 14.0602 2 14.1707V3C2 2.44772 2.44772 2 3 2H13C13.5523 2 14 2.44772 14 3V13ZM4 5C4 4.44772 4.44772 4 5 4H11C11.5523 4 12 4.44772 12 5C12 5.55228 11.5523 6 11 6H5C4.44772 6 4 5.55228 4 5ZM5 8C5 7.44772 5.44772 7 6 7H10C10.5523 7 11 7.44772 11 8C11 8.55228 10.5523 9 10 9H6C5.44772 9 5 8.55228 5 8Z" fill="#9B9797"/>
</svg>
