<svg width="24" height="24" viewBox="0 0 24 24" fill="none" xmlns="http://www.w3.org/2000/svg">
<path fill-rule="evenodd" clip-rule="evenodd" d="M4.99972 5C4.44762 5 4 5.44753 4 6V15C4 15.5525 4.44762 16 4.99972 16H9C9.72354 16 10.4059 16.1137 11 16.3842V7C11 6.15414 10.7892 5.70343 10.5429 5.45711C10.2966 5.21079 9.84586 5 9 5H4.99972ZM12 4.08663C11.9859 4.07194 11.9716 4.05736 11.9571 4.04289C11.2034 3.28921 10.1541 3 9 3H4.99972C3.34268 3 2 4.34333 2 6V18C2 19.6569 3.34315 21 5 21H19C20.6569 21 22 19.6569 22 18V6C22 4.34333 20.6573 3 19.0003 3H15C13.8459 3 12.7966 3.28921 12.0429 4.04289C12.0284 4.05736 12.0141 4.07194 12 4.08663ZM13 7V16.3842C13.5941 16.1137 14.2765 16 15 16H19.0003C19.5524 16 20 15.5525 20 15V6C20 5.44753 19.5524 5 19.0003 5H15C14.1541 5 13.7034 5.21079 13.4571 5.45711C13.2108 5.70343 13 6.15414 13 7ZM20 17.8294C19.6873 17.9399 19.3508 18 19.0003 18H15C14.1541 18 13.7034 18.2108 13.4571 18.4571C13.3346 18.5797 13.2208 18.7528 13.1374 19H19C19.5523 19 20 18.5523 20 18V17.8294ZM10.8626 19C10.7792 18.7528 10.6654 18.5797 10.5429 18.4571C10.2966 18.2108 9.84586 18 9 18H4.99972C4.64916 18 4.31268 17.9399 4 17.8294V18C4 18.5523 4.44772 19 5 19H10.8626Z" fill="#9B9797"/>
</svg>
