<svg width="22" height="16" viewBox="0 0 22 16" fill="none" xmlns="http://www.w3.org/2000/svg">
<path fill-rule="evenodd" clip-rule="evenodd" d="M19 2L3 2C2.44772 2 2 2.44772 2 3L2 5.5H20L20 3C20 2.44772 19.5523 2 19 2ZM20 7.5H2V13C2 13.5523 2.44772 14 3 14L19 14C19.5523 14 20 13.5523 20 13V7.5ZM3 7.15256e-07L19 0C20.6569 -1.19209e-07 22 1.34315 22 3L22 13C22 14.6569 20.6569 16 19 16L3 16C1.34315 16 3.57628e-07 14.6569 3.57628e-07 13L0 3C-2.38419e-07 1.34315 1.34315 7.7486e-07 3 7.15256e-07Z" fill="#9B9797"/>
</svg>
