<svg width="22" height="20" viewBox="0 0 22 20" fill="none" xmlns="http://www.w3.org/2000/svg">
<path fill-rule="evenodd" clip-rule="evenodd" d="M2.25 5C2.25 2.23858 4.48858 0 7.25 0H11C13.7614 0 16 2.23858 16 5V6.11774C18.1013 6.61728 19.75 8.64408 19.75 11V14.3761C19.75 14.961 19.921 15.5331 20.2419 16.0221L21.8361 18.4513C22.0377 18.7586 22.0545 19.1517 21.88 19.475C21.7054 19.7984 21.3675 20 21 20H11C8.23858 20 6 17.7614 6 15V14H1C0.632506 14 0.29462 13.7984 0.120042 13.475C-0.0545365 13.1517 -0.0376755 12.7586 0.163953 12.4513L1.75815 10.0221C2.07904 9.53312 2.25 8.961 2.25 8.37613V5ZM8 14V15C8 16.6569 9.34315 18 11 18H19.1476L18.5698 17.1194C18.0349 16.3044 17.75 15.3509 17.75 14.3761V11C17.75 9.72301 16.9684 8.6709 16 8.22699V9C16 11.7614 13.7614 14 11 14H8ZM2.85236 12L3.43024 11.1194C3.96506 10.3044 4.25 9.35092 4.25 8.37613V5C4.25 3.34315 5.59315 2 7.25 2H11C12.6569 2 14 3.34315 14 5V9C14 10.6569 12.6569 12 11 12H2.85236Z" fill="#9B9797"/>
</svg>
