<svg width="21" height="18" viewBox="0 0 21 18" fill="none" xmlns="http://www.w3.org/2000/svg">
<path fill-rule="evenodd" clip-rule="evenodd" d="M16.9497 0.636033C17.3402 0.245509 17.9734 0.245509 18.3639 0.636033C19.1996 1.47176 19.8626 2.46391 20.3148 3.55584C20.7671 4.64777 20.9999 5.8181 20.9999 6.99999C20.9999 8.18189 20.7671 9.35221 20.3148 10.4441C19.8626 11.5361 19.1996 12.5282 18.3639 13.364C17.9734 13.7545 17.3402 13.7545 16.9497 13.364C16.5592 12.9734 16.5592 12.3403 16.9497 11.9497C17.5997 11.2997 18.1153 10.5281 18.4671 9.67878C18.8189 8.8295 18.9999 7.91925 18.9999 6.99999C18.9999 6.08074 18.8189 5.17049 18.4671 4.32121C18.1153 3.47193 17.5997 2.70026 16.9497 2.05025C16.5592 1.65972 16.5592 1.02656 16.9497 0.636033ZM7.22207 3.99999C5.62658 3.99999 4.33318 5.29339 4.33318 6.88888C4.33318 8.48434 5.62663 9.77777 7.22215 9.77777C8.81762 9.77777 10.111 8.4844 10.111 6.88888C10.111 5.29339 8.81756 3.99999 7.22207 3.99999ZM10.4655 10.547C11.4749 9.65141 12.111 8.34442 12.111 6.88888C12.111 4.18882 9.92213 1.99999 7.22207 1.99999C4.52201 1.99999 2.33318 4.18882 2.33318 6.88888C2.33318 8.34445 2.96931 9.65144 3.97871 10.547C3.29594 10.8902 2.66575 11.3426 2.11527 11.8931C1.87114 12.1372 1.64625 12.3971 1.44162 12.6703C0.982993 13.2826 0.767028 13.965 0.805056 14.6537C0.8425 15.3318 1.12143 15.9389 1.52019 16.429C2.30488 17.3935 3.6206 18 4.99993 18H9.44438C10.8237 18 12.1394 17.3935 12.9241 16.429C13.3229 15.9389 13.6018 15.3318 13.6392 14.6537C13.6773 13.965 13.4613 13.2826 13.0027 12.6703C12.798 12.3971 12.5732 12.1372 12.329 11.8931C11.7785 11.3426 11.1483 10.8902 10.4655 10.547ZM7.22215 11.7778C5.83713 11.7778 4.50884 12.328 3.52948 13.3073C3.35289 13.4839 3.19029 13.6718 3.04237 13.8693C2.8388 14.1411 2.79227 14.3669 2.80201 14.5434C2.81234 14.7305 2.89146 14.9454 3.07159 15.1668C3.44468 15.6254 4.17013 16 4.99993 16H9.44438C10.2742 16 10.9996 15.6254 11.3727 15.1668C11.5528 14.9454 11.632 14.7305 11.6423 14.5434C11.652 14.3669 11.6055 14.1411 11.4019 13.8693C11.254 13.6718 11.0914 13.4839 10.9148 13.3073C9.93546 12.328 8.60717 11.7778 7.22215 11.7778ZM14.1213 3.46446C14.5118 3.07394 15.1449 3.07394 15.5355 3.46446C15.9998 3.92875 16.3681 4.47995 16.6193 5.08658C16.8706 5.69321 16.9999 6.34339 16.9999 6.99999C16.9999 7.6566 16.8706 8.30678 16.6193 8.91341C16.3681 9.52004 15.9998 10.0712 15.5355 10.5355C15.1449 10.9261 14.5118 10.9261 14.1213 10.5355C13.7307 10.145 13.7307 9.51184 14.1213 9.12132C14.3998 8.84274 14.6208 8.51202 14.7716 8.14805C14.9223 7.78407 14.9999 7.39396 14.9999 6.99999C14.9999 6.60603 14.9223 6.21592 14.7716 5.85194C14.6208 5.48797 14.3998 5.15725 14.1213 4.87867C13.7307 4.48815 13.7307 3.85498 14.1213 3.46446Z" fill="#9B9797"/>
</svg>
