<svg width="20" height="18" viewBox="0 0 20 18" fill="none" xmlns="http://www.w3.org/2000/svg">
<path fill-rule="evenodd" clip-rule="evenodd" d="M2.99972 2C2.44762 2 2 2.44753 2 3V12C2 12.5525 2.44762 13 2.99972 13H7C7.72354 13 8.40588 13.1137 9 13.3842V4C9 3.15414 8.78921 2.70343 8.54289 2.45711C8.29657 2.21079 7.84586 2 7 2H2.99972ZM10 1.08663C9.98587 1.07194 9.97158 1.05736 9.95711 1.04289C9.20343 0.289213 8.15414 0 7 0H2.99972C1.34268 0 0 1.34333 0 3V15C0 16.6569 1.34315 18 3 18H17C18.6569 18 20 16.6569 20 15V3C20 1.34333 18.6573 0 17.0003 0H13C11.8459 0 10.7966 0.289213 10.0429 1.04289C10.0284 1.05736 10.0141 1.07194 10 1.08663ZM11 4V13.3842C11.5941 13.1137 12.2765 13 13 13H17.0003C17.5524 13 18 12.5525 18 12V3C18 2.44753 17.5524 2 17.0003 2H13C12.1541 2 11.7034 2.21079 11.4571 2.45711C11.2108 2.70343 11 3.15414 11 4ZM18 14.8294C17.6873 14.9399 17.3508 15 17.0003 15H13C12.1541 15 11.7034 15.2108 11.4571 15.4571C11.3346 15.5797 11.2208 15.7528 11.1374 16H17C17.5523 16 18 15.5523 18 15V14.8294ZM8.86256 16C8.77919 15.7528 8.66544 15.5797 8.54289 15.4571C8.29657 15.2108 7.84586 15 7 15H2.99972C2.64916 15 2.31268 14.9399 2 14.8294V15C2 15.5523 2.44772 16 3 16H8.86256Z" fill="#9B9797"/>
</svg>
