<svg width="75" height="120" viewBox="0 0 75 120" fill="none" xmlns="http://www.w3.org/2000/svg">
<path d="M1.17898 19V16.7841L6.35653 11.9901C6.79688 11.5639 7.16619 11.1804 7.46449 10.8395C7.76752 10.4986 7.99716 10.1648 8.15341 9.83807C8.30966 9.50663 8.38778 9.14915 8.38778 8.76562C8.38778 8.33949 8.29072 7.97254 8.09659 7.66477C7.90246 7.35227 7.63731 7.11316 7.30114 6.94744C6.96496 6.77699 6.58381 6.69176 6.15767 6.69176C5.71259 6.69176 5.32434 6.78172 4.9929 6.96165C4.66146 7.14157 4.40578 7.39962 4.22585 7.7358C4.04593 8.07197 3.95597 8.47206 3.95597 8.93608H1.03693C1.03693 7.98437 1.25237 7.15814 1.68324 6.45739C2.11411 5.75663 2.7178 5.21449 3.49432 4.83097C4.27083 4.44744 5.16572 4.25568 6.17898 4.25568C7.22064 4.25568 8.12737 4.44034 8.89915 4.80966C9.67566 5.17424 10.2794 5.68087 10.7102 6.32955C11.1411 6.97822 11.3565 7.72159 11.3565 8.55966C11.3565 9.1089 11.2476 9.65104 11.0298 10.1861C10.8168 10.7211 10.4356 11.3153 9.88636 11.9688C9.33712 12.6174 8.56297 13.3963 7.56392 14.3054L5.44034 16.3864V16.4858H11.5483V19H1.17898ZM13.244 16.4432V14.0213L19.3164 4.45455H21.4045V7.80682H20.1687L16.3406 13.8651V13.9787H24.9698V16.4432H13.244ZM20.2255 19V15.7045L20.2823 14.6321V4.45455H23.1658V19H20.2255ZM1.2642 43V28.4545H4.33949V34.456H10.5824V28.4545H13.6506V43H10.5824V36.9915H4.33949V43H1.2642ZM21.0582 43.2131C19.955 43.2131 19.0009 42.9787 18.196 42.5099C17.3958 42.0365 16.7779 41.3783 16.3423 40.5355C15.9067 39.688 15.6889 38.7055 15.6889 37.5881C15.6889 36.4612 15.9067 35.4763 16.3423 34.6335C16.7779 33.786 17.3958 33.1278 18.196 32.6591C19.0009 32.1856 19.955 31.9489 21.0582 31.9489C22.1615 31.9489 23.1132 32.1856 23.9134 32.6591C24.7183 33.1278 25.3385 33.786 25.7741 34.6335C26.2098 35.4763 26.4276 36.4612 26.4276 37.5881C26.4276 38.7055 26.2098 39.688 25.7741 40.5355C25.3385 41.3783 24.7183 42.0365 23.9134 42.5099C23.1132 42.9787 22.1615 43.2131 21.0582 43.2131ZM21.0724 40.8693C21.5743 40.8693 21.9934 40.7273 22.3295 40.4432C22.6657 40.1544 22.919 39.7614 23.0895 39.2642C23.2647 38.767 23.3523 38.2012 23.3523 37.5668C23.3523 36.9323 23.2647 36.3665 23.0895 35.8693C22.919 35.3722 22.6657 34.9792 22.3295 34.6903C21.9934 34.4015 21.5743 34.2571 21.0724 34.2571C20.5658 34.2571 20.1397 34.4015 19.794 34.6903C19.4531 34.9792 19.1951 35.3722 19.0199 35.8693C18.8494 36.3665 18.7642 36.9323 18.7642 37.5668C18.7642 38.2012 18.8494 38.767 19.0199 39.2642C19.1951 39.7614 19.4531 40.1544 19.794 40.4432C20.1397 40.7273 20.5658 40.8693 21.0724 40.8693ZM35.3906 38.3551V32.0909H38.4162V43H35.5114V41.0185H35.3977C35.1515 41.6577 34.742 42.1714 34.169 42.5597C33.6009 42.9479 32.9072 43.142 32.0881 43.142C31.3589 43.142 30.7173 42.9763 30.1634 42.6449C29.6094 42.3134 29.1761 41.8423 28.8636 41.2315C28.5559 40.6207 28.3996 39.8892 28.3949 39.0369V32.0909H31.4205V38.4972C31.4252 39.1411 31.598 39.6501 31.9389 40.0241C32.2798 40.3982 32.7367 40.5852 33.3097 40.5852C33.6742 40.5852 34.0152 40.5024 34.3324 40.3366C34.6496 40.1662 34.9053 39.9152 35.0994 39.5838C35.2983 39.2524 35.3954 38.8428 35.3906 38.3551ZM40.8363 43V32.0909H43.7695V33.9943H43.8832C44.082 33.3172 44.4158 32.8059 44.8846 32.4602C45.3533 32.1098 45.8931 31.9347 46.5039 31.9347C46.6554 31.9347 46.8188 31.9441 46.994 31.9631C47.1692 31.982 47.323 32.008 47.4556 32.0412V34.7259C47.3136 34.6832 47.1171 34.6454 46.8661 34.6122C46.6152 34.5791 46.3855 34.5625 46.1772 34.5625C45.7321 34.5625 45.3344 34.6596 44.984 34.8537C44.6384 35.0431 44.3638 35.3082 44.1602 35.6491C43.9613 35.9901 43.8619 36.383 43.8619 36.8281V43H40.8363ZM58.0966 35.2017L55.3267 35.3722C55.2794 35.1354 55.1776 34.9223 55.0213 34.733C54.8651 34.5388 54.6591 34.3849 54.4034 34.2713C54.1525 34.1529 53.8518 34.0938 53.5014 34.0938C53.0327 34.0938 52.6373 34.1932 52.3153 34.392C51.9934 34.5862 51.8324 34.8466 51.8324 35.1733C51.8324 35.4337 51.9366 35.6539 52.1449 35.8338C52.3532 36.0137 52.7107 36.1581 53.2173 36.267L55.1918 36.6648C56.2524 36.8826 57.0431 37.233 57.5639 37.7159C58.0848 38.1989 58.3452 38.8333 58.3452 39.6193C58.3452 40.3343 58.1345 40.9616 57.7131 41.5014C57.2964 42.0412 56.7235 42.4626 55.9943 42.7656C55.2699 43.0639 54.4342 43.2131 53.4872 43.2131C52.0431 43.2131 50.8925 42.9124 50.0355 42.3111C49.1832 41.705 48.6837 40.8812 48.5369 39.8395L51.5128 39.6832C51.6027 40.1236 51.8205 40.4598 52.1662 40.6918C52.5118 40.919 52.9545 41.0327 53.4943 41.0327C54.0246 41.0327 54.4508 40.9309 54.7727 40.7273C55.0994 40.5189 55.2652 40.2514 55.2699 39.9247C55.2652 39.6501 55.1491 39.4252 54.9219 39.25C54.6946 39.0701 54.3442 38.9328 53.8707 38.8381L51.9815 38.4616C50.9162 38.2486 50.1231 37.8793 49.6023 37.3537C49.0862 36.8281 48.8281 36.1581 48.8281 35.3438C48.8281 34.643 49.0175 34.0393 49.3963 33.5327C49.7798 33.026 50.3172 32.6354 51.0085 32.3608C51.7045 32.0862 52.5189 31.9489 53.4517 31.9489C54.8295 31.9489 55.9138 32.2401 56.7045 32.8224C57.5 33.4048 57.964 34.1979 58.0966 35.2017ZM3.77131 67H0.475852L5.49716 52.4545H9.46023L14.4744 67H11.179L7.53551 55.7784H7.42188L3.77131 67ZM3.56534 61.2827H11.3494V63.6832H3.56534V61.2827ZM16.1683 67V56.0909H19.1016V57.9943H19.2152C19.4141 57.3172 19.7479 56.8059 20.2166 56.4602C20.6854 56.1098 21.2251 55.9347 21.8359 55.9347C21.9875 55.9347 22.1508 55.9441 22.326 55.9631C22.5012 55.982 22.6551 56.008 22.7876 56.0412V58.7259C22.6456 58.6832 22.4491 58.6454 22.1982 58.6122C21.9472 58.5791 21.7176 58.5625 21.5092 58.5625C21.0642 58.5625 20.6664 58.6596 20.3161 58.8537C19.9704 59.0431 19.6958 59.3082 19.4922 59.6491C19.2933 59.9901 19.1939 60.383 19.1939 60.8281V67H16.1683ZM28.8157 67.2131C27.6935 67.2131 26.7276 66.9858 25.918 66.5312C25.113 66.072 24.4928 65.4233 24.0572 64.5852C23.6216 63.7424 23.4038 62.7457 23.4038 61.5952C23.4038 60.473 23.6216 59.4882 24.0572 58.6406C24.4928 57.7931 25.1059 57.1326 25.8967 56.6591C26.6921 56.1856 27.6249 55.9489 28.695 55.9489C29.4147 55.9489 30.0846 56.0649 30.7049 56.2969C31.3299 56.5241 31.8744 56.8674 32.3384 57.3267C32.8072 57.786 33.1718 58.3636 33.4322 59.0597C33.6926 59.7509 33.8228 60.5606 33.8228 61.4886V62.3196H24.6112V60.4446H30.9748C30.9748 60.009 30.8801 59.6231 30.6907 59.2869C30.5013 58.9508 30.2385 58.688 29.9023 58.4986C29.5709 58.3045 29.185 58.2074 28.7447 58.2074C28.2854 58.2074 27.8782 58.3139 27.5231 58.527C27.1727 58.7353 26.8981 59.017 26.6992 59.3722C26.5004 59.7225 26.3986 60.1132 26.3938 60.544V62.3267C26.3938 62.8665 26.4933 63.3329 26.6921 63.7259C26.8957 64.1188 27.1822 64.4219 27.5515 64.6349C27.9208 64.848 28.3588 64.9545 28.8654 64.9545C29.2016 64.9545 29.5094 64.9072 29.7887 64.8125C30.0681 64.7178 30.3072 64.5758 30.506 64.3864C30.7049 64.197 30.8564 63.965 30.9606 63.6903L33.7589 63.875C33.6168 64.5473 33.3256 65.1345 32.8853 65.6364C32.4497 66.1335 31.8862 66.5218 31.195 66.8011C30.5084 67.0758 29.7153 67.2131 28.8157 67.2131ZM13.4304 76.4545V91H10.7741L4.44602 81.8452H4.33949V91H1.2642V76.4545H3.96307L10.2415 85.6023H10.3693V76.4545H13.4304ZM20.8434 91.2131C19.7402 91.2131 18.7861 90.9787 17.9812 90.5099C17.181 90.0365 16.5631 89.3783 16.1275 88.5355C15.6919 87.688 15.4741 86.7055 15.4741 85.5881C15.4741 84.4612 15.6919 83.4763 16.1275 82.6335C16.5631 81.786 17.181 81.1278 17.9812 80.6591C18.7861 80.1856 19.7402 79.9489 20.8434 79.9489C21.9466 79.9489 22.8983 80.1856 23.6985 80.6591C24.5034 81.1278 25.1237 81.786 25.5593 82.6335C25.9949 83.4763 26.2127 84.4612 26.2127 85.5881C26.2127 86.7055 25.9949 87.688 25.5593 88.5355C25.1237 89.3783 24.5034 90.0365 23.6985 90.5099C22.8983 90.9787 21.9466 91.2131 20.8434 91.2131ZM20.8576 88.8693C21.3595 88.8693 21.7785 88.7273 22.1147 88.4432C22.4509 88.1544 22.7042 87.7614 22.8746 87.2642C23.0498 86.767 23.1374 86.2012 23.1374 85.5668C23.1374 84.9323 23.0498 84.3665 22.8746 83.8693C22.7042 83.3722 22.4509 82.9792 22.1147 82.6903C21.7785 82.4015 21.3595 82.2571 20.8576 82.2571C20.351 82.2571 19.9248 82.4015 19.5792 82.6903C19.2383 82.9792 18.9802 83.3722 18.805 83.8693C18.6346 84.3665 18.5494 84.9323 18.5494 85.5668C18.5494 86.2012 18.6346 86.767 18.805 87.2642C18.9802 87.7614 19.2383 88.1544 19.5792 88.4432C19.9248 88.7273 20.351 88.8693 20.8576 88.8693ZM33.9826 80.0909V82.3636H27.413V80.0909H33.9826ZM28.9045 77.4773H31.93V87.6477C31.93 87.9271 31.9727 88.1449 32.0579 88.3011C32.1431 88.4527 32.2615 88.5592 32.413 88.6207C32.5692 88.6823 32.7492 88.7131 32.9528 88.7131C33.0948 88.7131 33.2369 88.7012 33.3789 88.6776C33.521 88.6491 33.6299 88.6278 33.7056 88.6136L34.1815 90.8651C34.0299 90.9124 33.8169 90.9669 33.5423 91.0284C33.2676 91.0947 32.9338 91.1349 32.5408 91.1491C31.8117 91.1776 31.1725 91.0805 30.6232 90.858C30.0787 90.6354 29.6549 90.2898 29.3519 89.821C29.0489 89.3523 28.8997 88.7604 28.9045 88.0455V77.4773ZM1.2642 115V100.455H11.0653V102.99H4.33949V106.456H10.5611V108.991H4.33949V112.464H11.0938V115H1.2642ZM16.479 108.693V115H13.4535V104.091H16.337V106.016H16.4648C16.7063 105.381 17.1112 104.879 17.6793 104.51C18.2475 104.136 18.9364 103.949 19.7461 103.949C20.5037 103.949 21.1642 104.115 21.7276 104.446C22.2911 104.777 22.729 105.251 23.0415 105.866C23.354 106.477 23.5103 107.206 23.5103 108.054V115H20.4847V108.594C20.4895 107.926 20.319 107.405 19.9734 107.031C19.6277 106.652 19.1519 106.463 18.5458 106.463C18.1386 106.463 17.7788 106.551 17.4663 106.726C17.1585 106.901 16.917 107.157 16.7418 107.493C16.5714 107.824 16.4838 108.224 16.479 108.693ZM30.8239 115.213C29.7206 115.213 28.7666 114.979 27.9616 114.51C27.1615 114.036 26.5436 113.378 26.108 112.536C25.6723 111.688 25.4545 110.705 25.4545 109.588C25.4545 108.461 25.6723 107.476 26.108 106.634C26.5436 105.786 27.1615 105.128 27.9616 104.659C28.7666 104.186 29.7206 103.949 30.8239 103.949C31.9271 103.949 32.8788 104.186 33.679 104.659C34.4839 105.128 35.1042 105.786 35.5398 106.634C35.9754 107.476 36.1932 108.461 36.1932 109.588C36.1932 110.705 35.9754 111.688 35.5398 112.536C35.1042 113.378 34.4839 114.036 33.679 114.51C32.8788 114.979 31.9271 115.213 30.8239 115.213ZM30.8381 112.869C31.34 112.869 31.759 112.727 32.0952 112.443C32.4313 112.154 32.6847 111.761 32.8551 111.264C33.0303 110.767 33.1179 110.201 33.1179 109.567C33.1179 108.932 33.0303 108.366 32.8551 107.869C32.6847 107.372 32.4313 106.979 32.0952 106.69C31.759 106.402 31.34 106.257 30.8381 106.257C30.3314 106.257 29.9053 106.402 29.5597 106.69C29.2188 106.979 28.9607 107.372 28.7855 107.869C28.6151 108.366 28.5298 108.932 28.5298 109.567C28.5298 110.201 28.6151 110.767 28.7855 111.264C28.9607 111.761 29.2188 112.154 29.5597 112.443C29.9053 112.727 30.3314 112.869 30.8381 112.869ZM45.1562 110.355V104.091H48.1818V115H45.277V113.018H45.1634C44.9171 113.658 44.5076 114.171 43.9347 114.56C43.3665 114.948 42.6728 115.142 41.8537 115.142C41.1245 115.142 40.483 114.976 39.929 114.645C39.375 114.313 38.9418 113.842 38.6293 113.232C38.3215 112.621 38.1652 111.889 38.1605 111.037V104.091H41.1861V110.497C41.1908 111.141 41.3636 111.65 41.7045 112.024C42.0455 112.398 42.5024 112.585 43.0753 112.585C43.4399 112.585 43.7808 112.502 44.098 112.337C44.4152 112.166 44.6709 111.915 44.8651 111.584C45.0639 111.252 45.161 110.843 45.1562 110.355ZM55.5167 119.318C54.5366 119.318 53.6961 119.183 52.9954 118.913C52.2994 118.648 51.7454 118.286 51.3335 117.827C50.9215 117.367 50.654 116.851 50.5309 116.278L53.3292 115.902C53.4144 116.12 53.5494 116.323 53.734 116.513C53.9187 116.702 54.1625 116.854 54.4656 116.967C54.7733 117.086 55.1474 117.145 55.5877 117.145C56.2459 117.145 56.788 116.984 57.2141 116.662C57.645 116.345 57.8604 115.812 57.8604 115.064V113.068H57.7326C57.6 113.371 57.4012 113.658 57.136 113.928C56.8709 114.197 56.5299 114.418 56.1133 114.588C55.6966 114.759 55.1995 114.844 54.6218 114.844C53.8027 114.844 53.0569 114.654 52.3846 114.276C51.717 113.892 51.1843 113.307 50.7866 112.521C50.3936 111.731 50.1971 110.732 50.1971 109.524C50.1971 108.288 50.3983 107.256 50.8008 106.428C51.2032 105.599 51.7383 104.979 52.4059 104.567C53.0782 104.155 53.8145 103.949 54.6147 103.949C55.2255 103.949 55.7369 104.053 56.1488 104.261C56.5607 104.465 56.8922 104.721 57.1431 105.028C57.3988 105.331 57.5953 105.63 57.7326 105.923H57.8462V104.091H60.8505V115.107C60.8505 116.035 60.6232 116.811 60.1687 117.436C59.7141 118.061 59.0844 118.53 58.2795 118.842C57.4793 119.16 56.5584 119.318 55.5167 119.318ZM55.5806 112.571C56.0683 112.571 56.4802 112.45 56.8164 112.209C57.1573 111.963 57.4177 111.612 57.5977 111.158C57.7823 110.698 57.8746 110.149 57.8746 109.51C57.8746 108.871 57.7847 108.317 57.6048 107.848C57.4248 107.375 57.1644 107.008 56.8235 106.747C56.4826 106.487 56.0683 106.357 55.5806 106.357C55.0835 106.357 54.6644 106.491 54.3235 106.761C53.9826 107.027 53.7246 107.396 53.5494 107.869C53.3742 108.343 53.2866 108.89 53.2866 109.51C53.2866 110.14 53.3742 110.684 53.5494 111.143C53.7293 111.598 53.9873 111.951 54.3235 112.202C54.6644 112.448 55.0835 112.571 55.5806 112.571ZM66.2837 108.693V115H63.2582V100.455H66.1985V106.016H66.3263C66.5726 105.372 66.9703 104.867 67.5195 104.503C68.0688 104.134 68.7577 103.949 69.5863 103.949C70.3439 103.949 71.0044 104.115 71.5678 104.446C72.136 104.773 72.5763 105.244 72.8888 105.859C73.2061 106.47 73.3623 107.202 73.3576 108.054V115H70.332V108.594C70.3368 107.921 70.1663 107.398 69.8207 107.024C69.4798 106.65 69.0015 106.463 68.386 106.463C67.9741 106.463 67.6095 106.551 67.2923 106.726C66.9798 106.901 66.7335 107.157 66.5536 107.493C66.3784 107.824 66.2885 108.224 66.2837 108.693Z" fill="white"/>
<path d="M67 30C67 32.2091 65.2091 34 63 34C60.7909 34 59 32.2091 59 30C59 27.7909 60.7909 26 63 26C65.2091 26 67 27.7909 67 30Z" fill="#00BABC"/>
</svg>
